<?xml version="1.0" standalone="no"?>
<!DOCTYPE svg PUBLIC "-//W3C//DTD SVG 20010904//EN"
 "http://www.w3.org/TR/2001/REC-SVG-20010904/DTD/svg10.dtd">
<svg version="1.0" xmlns="http://www.w3.org/2000/svg"
 width="600.000000pt" height="433.000000pt" viewBox="0 0 600.000000 433.000000"
 preserveAspectRatio="xMidYMid meet">

<g transform="translate(0.000000,433.000000) scale(0.100000,-0.100000)"
fill="#000000" stroke="none">
<path d="M0 2165 l0 -2165 3000 0 3000 0 0 2165 0 2165 -3000 0 -3000 0 0
-2165z m244 1976 c-3 -14 -10 -38 -16 -53 -12 -33 0 -91 49 -235 19 -56 33
-110 31 -119 -5 -28 -25 -27 -32 1 -4 15 -18 43 -31 63 -21 33 -47 139 -62
252 -6 45 31 132 52 124 10 -4 13 -14 9 -33z m4731 29 c3 -5 -1 -34 -9 -65
-16 -62 -10 -96 45 -258 17 -49 29 -98 27 -110 -4 -25 -28 -35 -28 -11 0 9
-12 38 -27 63 -24 40 -48 134 -69 261 -4 24 1 50 16 83 21 46 33 57 45 37z
m808 -97 c9 -17 16 -74 20 -150 l5 -122 -30 -46 c-35 -53 -40 -56 -57 -45 -11
6 -8 19 13 65 31 64 31 111 2 258 -20 99 -20 112 1 133 17 16 18 15 25 -24 4
-22 13 -53 21 -69z m-4753 75 c0 -13 9 -46 19 -74 14 -37 20 -81 22 -165 l3
-115 -32 -47 c-18 -26 -37 -47 -43 -47 -21 0 -19 30 6 80 29 56 29 41 -6 277
-6 45 -9 89 -6 98 10 24 37 18 37 -7z m-370 -93 c1 -5 -22 -13 -50 -16 -27 -4
-57 -9 -65 -13 -19 -7 -21 30 -2 38 21 9 117 2 117 -9z m4729 0 c0 -5 -30 -15
-65 -20 -58 -10 -64 -9 -64 6 0 10 6 20 13 23 21 9 117 2 116 -9z m-510 -250
c-22 -80 -36 -207 -23 -204 40 7 44 -14 9 -47 -21 -19 -25 -32 -25 -81 -2
-312 -44 -458 -157 -556 -16 -14 -26 -16 -40 -8 -10 5 -26 12 -35 15 -16 5
-15 10 12 53 17 26 40 77 50 112 20 62 50 278 50 356 l0 40 -55 0 c-42 0 -58
-5 -70 -20 -16 -20 -16 -20 -6 2 14 27 14 93 1 113 -7 11 -10 6 -10 -20 0 -44
-20 -73 -59 -90 -25 -10 -38 -9 -77 4 -59 20 -62 20 -67 -1 -3 -16 -5 -16 -12
2 -12 28 -33 39 -80 41 -22 1 -41 2 -42 3 -7 6 -114 4 -119 -2 -4 -3 -15 -2
-25 4 -11 5 -19 6 -19 1 0 -5 -19 -12 -42 -16 -23 -4 -47 -14 -54 -24 -10 -14
-14 -14 -28 -3 -13 11 -14 17 -5 28 7 8 18 12 25 9 7 -3 15 2 18 10 4 10 13
13 26 9 12 -4 20 -2 20 5 0 8 9 10 24 6 12 -3 26 -2 30 2 12 11 70 11 84 0 8
-7 12 -7 12 0 0 11 57 10 76 0 15 -8 88 -2 91 8 12 36 47 74 77 85 19 7 37 21
39 31 6 20 37 15 37 -7 0 -7 13 -18 30 -23 34 -12 70 -65 70 -103 0 -23 4 -26
33 -25 17 1 37 5 44 9 6 4 15 2 20 -5 9 -16 22 47 22 118 2 109 54 289 95 323
9 7 23 11 31 7 8 -3 15 0 16 7 0 7 7 -13 14 -43 12 -49 11 -62 -6 -125z
m-3681 -35 c12 -41 24 -111 28 -155 8 -127 13 -148 29 -135 10 8 17 7 28 -5
12 -11 17 -12 20 -2 3 9 9 9 26 -1 12 -7 21 -8 21 -2 0 5 9 10 20 10 11 0 20
-6 20 -12 0 -9 3 -9 9 1 5 8 18 12 29 9 17 -5 20 -1 19 20 -1 13 4 27 10 29
12 4 16 -2 29 -46 4 -11 8 -10 18 5 12 15 16 16 30 5 12 -10 16 -10 16 -2 0 7
10 12 23 11 12 -1 24 -1 27 0 3 2 25 4 51 5 25 1 49 4 55 7 8 5 183 4 194 -2
3 -1 15 -1 28 0 12 1 22 -3 22 -8 0 -6 9 -8 20 -5 12 3 22 -1 26 -10 3 -8 13
-13 23 -10 24 6 34 -22 14 -38 -13 -11 -17 -10 -28 4 -7 9 -19 17 -28 17 -9 0
-19 5 -22 10 -4 6 -11 8 -16 4 -6 -3 -18 -3 -27 1 -16 7 -86 9 -147 5 -16 -1
-24 -4 -17 -7 6 -2 12 -10 12 -17 0 -7 16 -20 35 -29 36 -17 69 -67 62 -95 -3
-12 -5 -11 -6 5 -2 35 -21 38 -21 3 0 -38 -47 -90 -82 -90 -13 1 -41 7 -63 15
-51 19 -55 19 -55 -2 -1 -16 -2 -16 -12 1 -20 35 -3 136 21 122 4 -3 13 6 19
19 6 13 23 27 37 31 41 10 28 39 -18 39 -20 0 -37 -4 -37 -9 0 -4 -10 -6 -22
-3 -12 4 -28 1 -35 -5 -9 -7 -17 -7 -28 2 -12 10 -15 10 -15 0 0 -8 -9 -11
-25 -8 -20 4 -24 1 -22 -16 1 -15 -4 -21 -18 -21 -12 0 -20 7 -20 17 0 9 -4
20 -8 24 -4 4 -7 2 -7 -4 0 -7 -32 -10 -100 -9 l-100 2 0 -40 c0 -79 31 -311
50 -375 10 -36 33 -87 50 -113 16 -26 30 -49 30 -50 0 -1 -12 -3 -26 -4 -15 0
-30 -6 -34 -13 -12 -19 -83 52 -117 117 -27 51 -36 76 -50 133 -7 32 -23 239
-23 311 0 72 -2 78 -30 106 -27 26 -29 32 -16 42 8 7 20 10 26 6 13 -8 13 22
-1 102 -9 53 -9 74 4 116 9 29 18 69 22 90 l6 38 22 -33 c13 -18 33 -67 45
-108z m-597 64 c7 -20 5 -40 -7 -78 -28 -85 -42 -108 -67 -104 -35 5 -34 56 4
138 34 74 53 86 70 44z m124 6 c30 -20 75 -92 75 -122 0 -26 -20 -32 -40 -12
-20 22 -82 154 -72 154 4 0 20 -9 37 -20z m4609 -5 c7 -28 -18 -127 -40 -162
-20 -32 -52 -30 -60 3 -7 26 21 111 53 162 18 29 39 28 47 -3z m139 -8 c39
-36 67 -111 50 -128 -6 -6 -17 -8 -23 -4 -11 7 -80 145 -80 159 0 14 21 3 53
-27z m-4215 -46 c-2 -9 -11 -17 -21 -19 -21 -4 -35 27 -17 38 19 12 42 0 38
-19z m3675 -11 c4 -15 0 -20 -14 -20 -12 0 -19 7 -19 20 0 11 6 20 14 20 7 0
16 -9 19 -20z m-3603 -10 c0 -13 -7 -20 -20 -20 -13 0 -20 7 -20 20 0 13 7 20
20 20 13 0 20 -7 20 -20z m3390 5 c0 -9 -7 -18 -16 -22 -18 -7 -39 11 -30 26
11 17 46 13 46 -4z m-4296 -26 c-22 -24 -54 -43 -61 -36 -4 5 66 57 76 57 2 0
-4 -9 -15 -21z m4736 1 c-12 -22 -46 -43 -61 -38 -6 2 6 16 28 31 45 32 47 33
33 7z m-3770 -31 c0 -12 -7 -19 -20 -19 -19 0 -28 28 -14 43 11 11 34 -5 34
-24z m3270 5 c0 -19 -28 -30 -42 -16 -8 8 -8 15 1 26 14 17 41 10 41 -10z
m300 -49 c-6 -17 -16 -25 -27 -23 -25 5 -28 29 -4 35 11 3 18 9 15 14 -3 5 -2
14 2 20 13 21 25 -18 14 -46z m-3966 19 c9 -3 16 -12 16 -19 0 -7 7 -15 15
-19 8 -3 15 -12 15 -21 0 -8 6 -15 14 -15 20 0 27 -27 11 -40 -16 -13 -35 -5
-35 15 0 7 -7 15 -15 19 -8 3 -15 12 -15 20 0 7 -7 16 -15 20 -8 3 -15 15 -15
26 0 22 1 23 24 14z m436 -34 c0 -13 -7 -20 -20 -20 -19 0 -27 20 -13 33 13
14 33 6 33 -13z m3185 10 c4 -6 1 -18 -6 -26 -11 -13 -14 -13 -27 0 -8 8 -11
19 -8 25 9 14 33 14 41 1z m304 -24 c9 -10 8 -16 -4 -26 -19 -16 -41 1 -32 24
8 20 21 20 36 2z m-3461 -59 c2 -12 -3 -17 -17 -17 -15 0 -21 6 -21 21 0 25
33 22 38 -4z m2364 -94 c-106 -102 -151 -266 -167 -612 -5 -109 -16 -195 -31
-240 -3 -9 -8 -10 -17 -3 -6 6 -28 13 -49 17 -31 6 -37 4 -42 -13 -7 -20 -42
-36 -58 -26 -13 8 -9 34 5 34 7 0 18 -5 25 -12 8 -8 14 -5 22 16 5 15 10 33
10 40 0 8 24 26 54 42 30 16 52 31 50 34 -3 3 -24 9 -47 15 l-42 10 2 63 c1
54 -1 62 -17 62 -18 0 -34 23 -23 34 4 3 14 6 23 6 15 0 18 18 24 130 11 208
60 336 158 409 28 21 90 40 132 41 l38 0 -50 -47z m-3245 1 c8 -22 -18 -37
-36 -20 -7 8 -10 19 -7 25 10 16 36 13 43 -5z m4853 -9 c0 -8 -4 -15 -10 -15
-5 0 -10 7 -10 15 0 8 5 15 10 15 6 0 10 -7 10 -15z m-1480 -14 c0 -11 -5 -21
-11 -23 -14 -5 -19 -147 -6 -155 4 -3 6 -11 3 -19 -3 -7 -1 -16 3 -18 7 -5 18
-40 25 -81 2 -9 5 -19 24 -65 3 -8 7 -19 7 -25 2 -10 11 -35 25 -70 18 -44 23
-60 21 -69 -1 -4 3 -14 9 -21 6 -8 10 -19 9 -27 -1 -7 1 -21 6 -31 4 -10 5
-21 2 -24 -4 -3 -2 -14 3 -24 7 -12 7 -20 0 -24 -8 -5 -7 -11 1 -21 9 -10 9
-17 0 -28 -6 -7 -9 -21 -5 -30 4 -10 0 -18 -10 -22 -9 -3 -13 -10 -10 -15 3
-6 0 -16 -6 -24 -6 -8 -9 -19 -6 -24 9 -13 -15 -26 -41 -22 -13 1 -23 -2 -23
-8 0 -6 -9 -11 -19 -11 -11 0 -23 -5 -27 -11 -3 -6 -14 -9 -24 -6 -9 2 -24 0
-33 -4 -10 -6 -18 -5 -22 1 -5 8 -11 7 -21 -1 -11 -9 -18 -9 -26 -1 -8 8 -15
9 -25 1 -9 -8 -17 -8 -26 -1 -7 6 -23 9 -35 5 -14 -3 -22 -1 -22 7 0 9 -4 9
-13 2 -7 -6 -18 -7 -26 -2 -8 4 -20 6 -28 3 -14 -6 -17 6 -5 22 10 14 32 17
51 9 9 -4 34 -7 56 -6 22 0 45 -4 52 -10 9 -7 13 -7 13 1 0 6 7 11 15 11 8 0
15 -5 15 -11 0 -8 5 -8 15 1 8 7 21 10 28 7 8 -3 20 -1 28 3 7 5 18 5 25 -1
16 -13 28 19 14 36 -16 19 13 40 31 23 17 -16 54 -23 45 -9 -3 5 0 16 8 24 8
8 12 17 9 21 -3 3 0 12 6 20 7 8 10 20 6 26 -4 6 -1 17 5 25 10 12 10 15 0 15
-8 0 -10 8 -6 24 3 14 1 28 -5 31 -6 4 -8 13 -5 20 2 7 0 17 -6 23 -8 8 -8 15
1 25 9 12 8 16 -4 21 -8 3 -15 14 -15 25 0 11 -5 23 -10 26 -6 4 -8 11 -4 16
3 5 0 16 -6 24 -7 8 -10 21 -7 29 3 8 -1 17 -9 20 -10 4 -13 13 -9 26 4 12 2
20 -5 20 -7 0 -10 8 -7 19 3 12 -1 22 -10 25 -9 4 -12 13 -8 26 3 11 2 20 -3
20 -10 0 -34 119 -26 132 3 5 1 15 -6 23 -8 9 -8 15 0 20 6 4 8 15 5 24 -7 23
22 81 41 81 8 0 14 -9 14 -19z m-1737 -5 c112 -48 190 -203 201 -393 3 -51 1
-63 -12 -63 -13 0 -13 -2 1 -18 10 -10 17 -30 17 -44 0 -14 7 -28 15 -32 19
-7 20 -32 2 -39 -11 -4 -12 -19 -5 -74 13 -100 14 -106 22 -131 6 -19 4 -25
-13 -29 -26 -7 -28 -23 -3 -23 20 0 42 -18 42 -35 0 -5 -5 -3 -10 6 -8 14 -16
15 -55 6 -25 -6 -45 -15 -45 -21 0 -16 -33 43 -48 86 -7 20 -13 57 -14 82 0
25 -4 46 -9 46 -4 0 -6 28 -2 63 5 54 -6 195 -23 293 -20 120 -77 237 -142
295 l-45 39 47 0 c26 0 61 -6 79 -14z m3327 -16 c0 -5 -2 -10 -4 -10 -3 0 -8
5 -11 10 -3 6 -1 10 4 10 6 0 11 -4 11 -10z m-5100 -15 c0 -8 11 -17 25 -21
42 -10 78 -68 79 -124 1 -57 -18 -84 -80 -111 -50 -23 -103 -11 -146 31 -57
57 -29 174 48 202 18 6 34 18 34 25 0 7 9 13 20 13 11 0 20 -7 20 -15z m176
-24 c-9 -14 -33 -14 -41 -1 -4 6 -1 18 6 26 11 13 14 13 27 0 8 -8 11 -19 8
-25z m1464 20 c0 -11 5 -23 11 -27 6 -3 8 -17 5 -29 -4 -14 -1 -25 7 -28 9 -3
9 -9 0 -24 -8 -14 -8 -24 -2 -30 7 -7 5 -15 -4 -25 -10 -10 -12 -19 -5 -31 6
-12 5 -19 -5 -23 -9 -3 -12 -14 -9 -30 2 -13 0 -24 -6 -24 -6 0 -8 -9 -5 -20
3 -12 -1 -22 -10 -26 -9 -3 -13 -12 -10 -20 3 -8 0 -21 -7 -29 -6 -8 -9 -18
-6 -23 3 -6 -1 -15 -9 -22 -8 -7 -12 -16 -9 -22 3 -5 0 -15 -6 -23 -6 -8 -9
-18 -6 -24 4 -5 -1 -16 -10 -25 -8 -9 -12 -21 -9 -26 4 -6 1 -17 -5 -25 -6 -8
-9 -18 -6 -24 4 -5 0 -15 -7 -23 -8 -7 -12 -19 -9 -26 2 -7 -1 -19 -8 -26 -7
-10 -8 -16 0 -21 7 -4 7 -12 0 -25 -7 -13 -7 -21 0 -25 8 -5 8 -11 0 -20 -8
-10 -8 -15 0 -20 7 -4 10 -16 7 -26 -6 -24 2 -24 18 -2 11 15 15 15 29 4 15
-13 15 -16 -4 -37 -25 -26 -88 -31 -97 -7 -3 8 -1 18 4 22 13 8 23 50 13 56
-10 6 -10 84 0 90 5 3 6 14 3 24 -3 10 0 22 5 25 6 3 8 15 5 25 -3 10 0 22 6
25 5 4 8 13 5 20 -3 7 2 18 10 25 7 6 12 20 9 30 -3 10 0 22 6 25 5 4 8 13 5
20 -3 7 2 18 10 25 8 7 12 19 9 27 -3 7 2 16 10 20 9 3 13 12 10 20 -3 8 0 20
6 28 6 7 9 21 5 30 -4 9 0 18 9 22 8 3 13 13 10 24 -3 10 0 21 6 24 5 4 8 13
4 21 -3 9 -1 21 4 28 5 6 9 43 8 81 -1 52 -5 70 -18 77 -21 12 -11 39 14 39
12 0 19 -7 19 -19z m3333 -17 c-3 -8 -12 -14 -19 -14 -20 0 -30 30 -13 40 17
11 40 -7 32 -26z m-863 21 c0 -2 -16 -9 -36 -14 -28 -8 -43 -7 -63 4 -25 14
-23 14 37 15 34 0 62 -2 62 -5z m996 -20 c4 -8 21 -22 40 -31 38 -18 74 -69
74 -107 0 -96 -109 -160 -197 -114 -44 24 -63 54 -63 105 0 57 25 98 72 120
21 9 38 23 38 30 0 17 29 15 36 -3z m-4886 -51 c0 -20 -30 -30 -40 -13 -11 17
7 40 26 32 8 -3 14 -12 14 -19z m848 9 c5 -17 -26 -29 -40 -15 -6 6 -7 15 -3
22 9 14 37 9 43 -7z m3032 -3 c0 -13 -7 -20 -20 -20 -13 0 -20 7 -20 20 0 13
7 20 20 20 13 0 20 -7 20 -20z m828 -7 c-2 -10 -10 -18 -18 -18 -8 0 -16 8
-18 18 -2 12 3 17 18 17 15 0 20 -5 18 -17z m-331 -25 c-3 -8 -6 -5 -6 6 -1
11 2 17 5 13 3 -3 4 -12 1 -19z m-4334 -44 c-3 -8 -12 -14 -19 -14 -20 0 -30
30 -13 40 17 11 40 -7 32 -26z m4474 25 c6 -6 9 -18 6 -25 -3 -8 1 -14 11 -14
9 0 16 -8 16 -20 0 -24 18 -26 35 -3 7 9 17 13 23 9 19 -12 14 -36 -10 -45
-18 -6 -19 -9 -5 -14 10 -4 17 -13 17 -22 0 -8 5 -15 11 -15 6 0 30 -19 53
-43 23 -23 87 -69 141 -101 161 -96 268 -219 282 -324 4 -30 0 -41 -19 -60
l-25 -23 -36 59 c-54 88 -65 93 -61 32 3 -37 0 -52 -10 -56 -8 -3 -12 -12 -9
-20 4 -10 -2 -17 -15 -21 -11 -2 -23 -14 -25 -25 -4 -14 -11 -19 -21 -15 -10
4 -16 1 -16 -8 0 -13 -13 -20 -24 -12 -2 1 -13 -6 -24 -16 -12 -11 -25 -16
-30 -13 -6 3 -13 -1 -16 -10 -3 -8 -11 -14 -18 -13 -13 2 -37 -5 -75 -23 -11
-6 -26 -8 -31 -4 -5 3 -13 -1 -16 -10 -4 -10 -13 -13 -26 -9 -12 4 -20 2 -20
-5 0 -7 -8 -10 -19 -7 -23 6 -37 -19 -21 -38 7 -9 6 -16 -4 -25 -20 -15 -39
-3 -33 21 6 22 -8 35 -16 15 -3 -7 -21 -16 -40 -20 -19 -4 -40 -13 -47 -21 -7
-8 -17 -12 -22 -9 -5 3 -15 -2 -23 -12 -11 -15 -16 -16 -26 -7 -15 15 -3 47
15 40 8 -3 17 1 20 9 3 8 15 14 26 14 11 0 20 4 20 8 0 11 68 35 79 28 5 -3
12 1 15 10 3 8 11 14 18 13 14 -2 42 6 70 22 10 5 24 6 33 3 8 -3 15 -1 15 5
0 6 9 11 19 11 11 0 23 5 27 11 3 6 14 9 24 6 11 -3 21 1 24 9 3 8 15 14 26
14 11 0 20 5 20 11 0 6 9 9 20 6 13 -3 20 0 20 9 0 8 7 14 15 14 8 0 31 16 51
36 28 29 36 45 38 78 1 22 -1 48 -5 56 -4 8 -12 26 -19 40 -14 29 -124 112
-260 195 -52 32 -130 83 -172 114 l-77 56 0 60 c0 43 3 54 9 40 7 -17 9 -14
11 15 l2 35 6 -35 c6 -32 7 -33 18 -15 10 17 12 13 19 -30 l8 -50 6 38 5 37
27 -25 c31 -29 38 -31 38 -10 0 8 -4 15 -9 15 -11 0 -41 56 -41 77 0 16 12 17
27 2z m153 -15 c0 -19 -28 -30 -42 -16 -8 8 -8 15 1 26 14 17 41 10 41 -10z
m-4493 -6 c-3 -8 -6 -5 -6 6 -1 11 2 17 5 13 3 -3 4 -12 1 -19z m680 6 c7 -20
-17 -37 -34 -23 -15 13 -6 39 13 39 8 0 17 -7 21 -16z m333 -31 c-11 -17 -11
-17 -6 0 3 10 7 26 7 35 1 15 2 15 6 0 2 -10 -1 -25 -7 -35z m2677 31 c8 -21
-13 -42 -28 -27 -13 13 -5 43 11 43 6 0 13 -7 17 -16z m-3717 -44 c0 -11 -4
-20 -10 -20 -5 0 -10 -7 -10 -15 0 -18 16 -20 23 -2 3 8 10 6 21 -8 15 -19 15
-19 16 13 0 33 19 46 21 15 1 -10 5 -4 9 12 l8 30 2 -30 c1 -26 3 -27 10 -10
6 14 9 3 9 -40 l1 -61 -47 -35 c-27 -20 -91 -62 -143 -93 -176 -107 -317 -217
-304 -238 3 -4 2 -14 -3 -20 -4 -7 -7 -33 -8 -58 0 -33 -4 -45 -15 -45 -8 0
-15 9 -15 20 -1 11 -4 26 -9 33 -4 7 -2 19 5 28 6 8 10 17 7 20 -7 6 -60 -61
-82 -105 l-18 -33 -24 23 c-30 28 -30 52 -3 125 30 80 133 181 269 264 57 35
121 81 141 102 20 21 41 38 48 38 7 0 10 4 6 9 -3 5 4 16 15 24 l21 14 -21 6
c-22 6 -27 31 -8 43 6 4 16 0 23 -9 17 -23 35 -21 35 3 0 11 7 20 15 20 8 0
15 -9 15 -20z m716 -49 c-9 -14 -33 -14 -41 -1 -4 6 -1 18 6 26 11 13 14 13
27 0 8 -8 11 -19 8 -25z m2991 23 c8 -21 -13 -42 -28 -27 -13 13 -5 43 11 43
6 0 13 -7 17 -16z m-3537 -18 c0 -8 -4 -18 -10 -21 -5 -3 -10 3 -10 14 0 12 5
21 10 21 6 0 10 -6 10 -14z m816 5 c-8 -12 -59 -21 -85 -14 -40 10 -21 23 35
23 30 0 53 -4 50 -9z m-258 -68 c5 -17 -26 -29 -40 -15 -6 6 -7 15 -3 22 9 14
37 9 43 -7z m2779 4 c4 -7 27 -24 49 -39 35 -22 44 -35 54 -77 11 -45 10 -54
-7 -83 -40 -68 -132 -91 -192 -49 -34 25 -61 69 -61 101 0 39 29 90 61 108 18
9 39 25 48 35 18 20 37 22 48 4z m193 -7 c0 -13 -7 -20 -20 -20 -13 0 -20 7
-20 20 0 13 7 20 20 20 13 0 20 -7 20 -20z m-3623 -66 c8 -21 -13 -42 -28 -27
-13 13 -5 43 11 43 6 0 13 -7 17 -16z m658 6 c4 -6 1 -18 -6 -26 -11 -13 -14
-13 -27 0 -8 8 -11 19 -8 25 9 14 33 14 41 1z m2952 -6 c8 -21 -13 -42 -28
-27 -13 13 -5 43 11 43 6 0 13 -7 17 -16z m640 0 c8 -21 -13 -42 -28 -27 -13
13 -5 43 11 43 6 0 13 -7 17 -16z m-1270 -44 c3 -12 14 -20 25 -20 24 0 78
-55 77 -79 0 -12 -2 -12 -8 4 -6 15 -9 11 -14 -22 -12 -75 -73 -100 -162 -68
-22 8 -41 15 -42 15 -2 0 -3 -8 -4 -17 -1 -32 -18 18 -18 55 -1 26 8 42 39 73
21 21 46 39 53 39 8 0 17 9 20 20 3 11 10 20 17 20 7 0 14 -9 17 -20z m-2937
-15 c16 -20 1 -38 -23 -29 -17 6 -22 25 -10 37 10 11 19 8 33 -8z m1680 5 c0
-5 -5 -10 -11 -10 -5 0 -7 5 -4 10 3 6 8 10 11 10 2 0 4 -4 4 -10z m2483 -4
c8 -20 -20 -43 -35 -28 -14 14 -3 42 16 42 7 0 16 -6 19 -14z m-3537 -35 c-9
-14 -33 -14 -41 -1 -4 6 -1 18 6 26 11 13 14 13 27 0 8 -8 11 -19 8 -25z
m2931 23 c8 -21 -13 -42 -28 -27 -13 13 -5 43 11 43 6 0 13 -7 17 -16z m-1011
-43 c-9 -14 -33 -14 -41 -1 -4 6 -1 18 6 26 11 13 14 13 27 0 8 -8 11 -19 8
-25z m-1709 10 c3 -11 15 -22 28 -25 12 -3 37 -22 54 -41 52 -59 40 -137 -28
-182 -110 -74 -247 49 -187 166 16 30 56 61 79 61 8 0 17 9 20 20 7 25 27 26
34 1z m-790 -17 c8 -21 -13 -42 -28 -27 -13 13 -5 43 11 43 6 0 13 -7 17 -16z
m4070 0 c8 -21 -13 -42 -28 -27 -13 13 -5 43 11 43 6 0 13 -7 17 -16z m-3479
-31 c-5 -26 -38 -29 -38 -4 0 15 6 21 21 21 14 0 19 -5 17 -17z m2907 -3 c0
-8 -8 -16 -17 -18 -13 -2 -18 3 -18 18 0 15 5 20 18 18 9 -2 17 -10 17 -18z
m-3458 -26 c8 -21 -13 -42 -28 -27 -13 13 -5 43 11 43 6 0 13 -7 17 -16z
m2948 -55 c-8 -19 -13 -25 -9 -14 3 11 9 36 12 55 5 25 7 29 10 14 2 -12 -4
-37 -13 -55z m1042 55 c8 -21 -13 -42 -28 -27 -13 13 -5 43 11 43 6 0 13 -7
17 -16z m-4123 -32 c4 -18 19 -34 44 -47 20 -11 44 -34 53 -52 20 -40 14 -93
-11 -93 -10 0 -37 -7 -60 -15 -49 -17 -80 -12 -115 21 -18 17 -25 33 -25 61 0
28 -3 34 -10 23 -13 -20 -13 -71 0 -107 l10 -28 -19 25 c-16 19 -19 34 -14 65
7 53 27 82 68 102 19 9 35 20 35 24 0 4 7 15 16 23 9 9 11 16 4 16 -6 0 -8 5
-5 10 10 16 23 3 29 -28z m4245 17 c-10 -6 -11 -9 -1 -9 6 0 12 -9 12 -20 0
-11 5 -20 12 -20 6 0 26 -10 44 -22 28 -19 32 -27 27 -53 -9 -58 -25 -84 -59
-100 -32 -15 -38 -15 -85 0 -27 9 -56 15 -63 12 -20 -8 -25 55 -8 97 10 25 26
41 53 53 21 10 39 24 39 31 0 23 21 53 32 46 7 -4 6 -9 -3 -15z m-3541 -26 c5
-17 -26 -29 -40 -15 -6 6 -7 15 -3 22 9 14 37 9 43 -7z m2872 -3 c0 -13 -7
-20 -20 -20 -13 0 -20 7 -20 20 0 13 7 20 20 20 13 0 20 -7 20 -20z m-3402
-27 c5 -17 -26 -29 -40 -15 -6 6 -7 15 -3 22 9 14 37 9 43 -7z m1966 6 c13 2
17 -2 13 -12 -3 -9 1 -21 9 -27 8 -7 14 -9 14 -4 0 4 5 3 12 -4 9 -9 9 -15 0
-24 -9 -9 -15 -9 -24 0 -7 7 -19 12 -27 11 -10 0 -6 -4 7 -10 28 -11 24 -33
-6 -37 -15 -2 -22 2 -22 13 0 9 -4 14 -8 11 -15 -9 -35 12 -29 29 5 11 13 14
26 10 12 -3 21 0 25 10 4 12 0 14 -19 9 -18 -4 -25 -2 -25 8 0 20 11 29 24 20
6 -3 20 -5 30 -3z m1954 -6 c5 -17 -26 -29 -40 -15 -6 6 -7 15 -3 22 9 14 37
9 43 -7z m-1908 -13 c0 -5 -4 -10 -10 -10 -5 0 -10 5 -10 10 0 6 5 10 10 10 6
0 10 -4 10 -10z m648 -7 c5 -17 -26 -29 -40 -15 -6 6 -7 15 -3 22 9 14 37 9
43 -7z m-760 -11 c2 -7 -6 -12 -17 -12 -21 0 -27 11 -14 24 9 9 26 2 31 -12z
m-1353 -12 c0 -8 -8 -16 -17 -18 -13 -2 -18 3 -18 18 0 15 5 20 18 18 9 -2 17
-10 17 -18z m2305 12 c0 -6 -7 -13 -16 -16 -33 -12 -99 -3 -89 13 6 11 105 13
105 3z m525 -12 c0 -8 -8 -16 -17 -18 -13 -2 -18 3 -18 18 0 15 5 20 18 18 9
-2 17 -10 17 -18z m-3355 -25 c0 -19 -20 -29 -32 -17 -15 15 -2 43 17 36 8 -3
15 -12 15 -19z m1188 2 c2 -12 -3 -17 -17 -17 -12 0 -21 6 -21 13 0 31 32 34
38 4z m1510 0 c2 -11 -3 -17 -17 -17 -23 0 -35 15 -26 31 10 15 39 6 43 -14z
m1172 -2 c0 -19 -20 -29 -32 -17 -15 15 -2 43 17 36 8 -3 15 -12 15 -19z
m-2004 4 c10 -17 -13 -36 -27 -22 -12 12 -4 33 11 33 5 0 12 -5 16 -11z m2299
1 c3 -5 1 -10 -4 -10 -6 0 -11 5 -11 10 0 6 2 10 4 10 3 0 8 -4 11 -10z
m-2159 -22 c-3 -7 -9 -21 -12 -30 -7 -20 -20 -23 -29 -7 -4 6 1 19 11 29 22
22 38 26 30 8z m-1449 -14 c8 -21 -13 -42 -28 -27 -13 13 -5 43 11 43 6 0 13
-7 17 -16z m570 0 c7 -20 -17 -37 -34 -23 -15 13 -6 39 13 39 8 0 17 -7 21
-16z m1630 0 c6 -16 -15 -37 -29 -28 -4 3 -8 14 -8 25 0 23 28 26 37 3z m570
0 c8 -21 -13 -42 -28 -27 -13 13 -5 43 11 43 6 0 13 -7 17 -16z m832 -68 c-9
-8 -10 -7 -5 7 3 10 7 33 8 50 1 28 2 28 5 -7 3 -22 -1 -43 -8 -50z m-2244 54
c0 -8 -10 -16 -22 -18 -18 -3 -23 2 -23 18 0 16 5 21 23 18 12 -2 22 -10 22
-18z m-62 -5 c1 -5 -6 -11 -15 -13 -11 -2 -18 3 -18 13 0 17 30 18 33 0z m116
-25 c6 0 11 -4 11 -10 0 -14 -23 -12 -45 3 -11 9 -15 19 -10 27 6 10 11 10 20
-3 7 -10 17 -17 24 -17z m1887 -9 c-9 -14 -33 -14 -41 -1 -4 6 -1 18 6 26 11
13 14 13 27 0 8 -8 11 -19 8 -25z m-3846 8 c0 -25 -33 -22 -38 4 -2 12 3 17
17 17 15 0 21 -6 21 -21z m1058 4 c5 -17 -26 -29 -40 -15 -6 6 -7 15 -3 22 9
14 37 9 43 -7z m1752 -3 c0 -13 -7 -20 -20 -20 -13 0 -20 7 -20 20 0 13 7 20
20 20 13 0 20 -7 20 -20z m-950 -5 c0 -8 -4 -15 -10 -15 -5 0 -10 7 -10 15 0
8 5 15 10 15 6 0 10 -7 10 -15z m-1273 -11 c8 -21 -13 -42 -28 -27 -13 13 -5
43 11 43 6 0 13 -7 17 -16z m1326 2 c23 -18 22 -23 -8 -23 -27 0 -40 11 -30
27 8 13 16 12 38 -4z m1362 4 c4 -6 1 -17 -5 -26 -15 -18 -42 0 -33 22 6 16
29 19 38 4z m-2288 -16 c8 -21 -13 -42 -28 -27 -13 13 -5 43 11 43 6 0 13 -7
17 -16z m-1627 -44 c14 -16 31 -29 38 -30 7 0 15 -6 18 -14 3 -8 12 -12 19
-10 7 3 16 1 20 -5 3 -6 15 -11 26 -11 11 0 22 -6 25 -14 3 -8 13 -12 24 -9
10 3 21 0 24 -6 4 -6 16 -11 27 -11 10 0 19 -5 19 -11 0 -5 5 -7 11 -3 6 3 21
2 32 -4 38 -18 62 -25 75 -23 7 1 15 -5 18 -13 3 -9 10 -13 15 -10 11 7 79
-17 79 -28 0 -4 9 -8 20 -8 11 0 23 -7 26 -15 4 -8 10 -13 14 -10 5 3 15 -2
23 -10 9 -8 21 -15 27 -15 6 0 15 -10 20 -22 l9 -23 7 23 c3 12 9 22 13 22 10
-1 61 -77 61 -93 0 -17 -32 -77 -41 -77 -3 0 -4 -11 -1 -25 2 -15 0 -25 -8
-25 -7 0 -9 -8 -5 -20 4 -12 2 -20 -5 -20 -6 0 -15 -11 -20 -25 -5 -14 -14
-25 -20 -25 -5 0 -9 -3 -9 -7 3 -21 -2 -33 -16 -33 -8 0 -15 -9 -15 -20 0 -11
-7 -20 -15 -20 -8 0 -15 -7 -15 -15 0 -8 -6 -15 -14 -15 -8 0 -18 -9 -21 -20
-3 -11 -12 -20 -20 -20 -7 0 -15 -7 -19 -15 -3 -8 -12 -15 -20 -15 -7 0 -16
-9 -19 -21 -3 -12 -10 -18 -16 -14 -6 3 -11 -1 -11 -9 0 -9 -6 -16 -12 -16 -7
0 3 -9 22 -19 19 -11 34 -24 32 -31 -1 -6 2 -9 7 -5 26 16 43 -102 20 -135 -9
-13 -10 -12 -5 3 7 21 -7 22 -69 1 -45 -16 -50 -16 -83 2 -36 19 -51 47 -53
92 l-1 27 -13 -30 c-10 -24 -10 -37 0 -72 7 -24 9 -41 5 -38 -5 3 -11 19 -15
35 -5 21 -13 30 -26 30 -11 0 -18 -4 -15 -8 6 -9 -47 -62 -62 -62 -5 0 -17
-15 -26 -34 -13 -28 -20 -32 -41 -28 -14 2 -25 0 -23 -5 4 -13 -52 -64 -63
-57 -14 9 -10 44 5 44 8 0 16 7 20 15 3 8 12 15 20 15 7 0 16 7 20 15 3 8 12
15 21 15 8 0 15 7 15 15 0 8 9 15 20 15 11 0 20 5 20 11 0 15 42 59 57 59 7 0
12 6 10 12 -1 7 8 14 21 16 13 2 26 11 29 20 9 26 36 53 61 63 13 5 30 25 38
45 15 35 16 36 35 18 13 -11 19 -13 19 -4 0 16 41 60 58 60 6 0 12 7 12 15 0
8 9 15 20 15 11 0 19 3 19 8 -3 20 2 32 16 32 8 0 15 7 15 15 0 8 7 15 15 15
8 0 15 9 15 20 0 11 7 20 15 20 8 0 15 9 15 20 0 11 7 20 16 20 9 0 12 5 8 12
-4 6 1 17 10 24 10 7 15 17 12 23 -4 6 -25 -3 -54 -23 -55 -39 -163 -94 -316
-161 -202 -87 -353 -187 -410 -272 l-24 -34 -22 36 c-18 30 -20 40 -11 65 5
17 8 37 5 45 -4 9 1 18 11 21 9 4 38 28 63 53 67 66 140 111 272 165 198 83
350 162 423 221 40 32 46 45 22 45 -8 0 -15 9 -15 19 0 14 -5 18 -20 14 -14
-4 -20 0 -20 11 0 9 -8 16 -19 16 -11 0 -22 4 -25 9 -3 4 -20 11 -38 15 -17 3
-40 14 -51 23 -18 17 -18 16 -12 -9 8 -30 -9 -45 -31 -28 -10 9 -11 16 -4 25
15 18 2 44 -20 38 -10 -3 -21 0 -24 5 -3 6 -15 8 -26 5 -14 -4 -20 0 -20 11 0
10 -5 14 -11 10 -6 -3 -21 -2 -32 4 -38 18 -62 25 -75 23 -7 -1 -15 5 -18 13
-3 8 -12 12 -21 9 -9 -4 -21 1 -29 11 -6 10 -15 17 -18 17 -20 -3 -26 1 -26
15 0 8 -5 12 -10 9 -13 -8 -42 14 -34 26 3 5 -2 9 -10 9 -18 0 -29 16 -21 30
11 18 30 11 55 -20z m638 3 c-5 -26 -38 -29 -38 -4 0 15 6 21 21 21 14 0 19
-5 17 -17z m650 0 c5 -17 -26 -29 -40 -15 -6 6 -7 15 -3 22 9 14 37 9 43 -7z
m2570 0 c-2 -10 -10 -18 -18 -18 -8 0 -16 8 -18 18 -2 12 3 17 18 17 15 0 20
-5 18 -17z m630 0 c-2 -10 -10 -18 -18 -18 -8 0 -16 8 -18 18 -2 12 3 17 18
17 15 0 20 -5 18 -17z m-4028 -13 c-20 -13 -87 -13 -95 0 -4 6 16 10 52 10 41
0 54 -3 43 -10z m887 -6 c8 -20 -8 -36 -26 -25 -15 10 -8 41 9 41 6 0 13 -7
17 -16z m2303 -5 c0 -25 -33 -22 -38 4 -2 12 3 17 17 17 15 0 21 -6 21 -21z
m143 7 c9 -22 -18 -40 -33 -22 -6 9 -9 20 -5 26 9 15 32 12 38 -4z m932 4 c-8
-13 -75 -13 -95 0 -11 7 2 10 43 10 36 0 56 -4 52 -10z m-3305 -21 c0 -25 -33
-22 -38 4 -2 12 3 17 17 17 15 0 21 -6 21 -21z m2303 15 c9 -10 -4 -34 -18
-34 -17 0 -28 17 -20 30 7 11 28 13 38 4z m-1614 -28 c8 -10 8 -16 -3 -25 -16
-13 -66 1 -66 20 0 6 7 9 15 6 8 -4 17 -2 20 3 9 14 21 12 34 -4z m-1502 -12
c8 -20 -8 -36 -26 -25 -15 10 -8 41 9 41 6 0 13 -7 17 -16z m961 -1 c-2 -10
-10 -18 -18 -18 -8 0 -16 8 -18 18 -2 12 3 17 18 17 15 0 20 -5 18 -17z m2949
1 c7 -18 -17 -38 -31 -24 -11 11 -1 40 14 40 6 0 13 -7 17 -16z m-2902 -14 c3
-5 12 -7 19 -4 8 3 17 1 21 -5 3 -6 17 -8 31 -5 16 4 24 2 24 -6 0 -10 3 -10
15 0 12 10 18 10 29 1 11 -9 16 -9 21 -1 4 7 15 10 25 7 9 -2 24 0 33 4 10 6
18 5 23 -2 4 -8 9 -7 15 2 6 10 15 11 35 4 43 -15 40 -32 -6 -31 -22 1 -40 -2
-40 -6 0 -4 -21 -7 -47 -6 -27 1 -54 -1 -60 -5 -7 -5 -18 -5 -25 -1 -7 4 -31
8 -54 8 -23 1 -46 4 -50 9 -4 4 -18 7 -31 7 -22 0 -31 19 -16 33 9 10 31 8 38
-3z m-1047 -47 c5 -17 -26 -29 -40 -15 -6 6 -7 15 -3 22 9 14 37 9 43 -7z
m3995 11 c9 -10 -4 -34 -18 -34 -17 0 -28 17 -20 30 7 11 28 13 38 4z m-4058
-54 c0 -8 -8 -16 -17 -18 -13 -2 -18 3 -18 18 0 15 5 20 18 18 9 -2 17 -10 17
-18z m4115 0 c0 -13 -7 -20 -20 -20 -19 0 -27 20 -13 33 13 14 33 6 33 -13z
m-4313 -86 c7 -20 -17 -37 -34 -23 -15 13 -6 39 13 39 8 0 17 -7 21 -16z
m4510 0 c8 -20 -8 -36 -26 -25 -15 10 -8 41 9 41 6 0 13 -7 17 -16z m-4579
-31 c5 -17 -26 -29 -40 -15 -6 6 -7 15 -3 22 9 14 37 9 43 -7z m4236 -5 l7
-23 9 23 c11 26 28 29 37 6 4 -11 -1 -22 -13 -31 -18 -14 -18 -15 11 -39 72
-60 249 -154 444 -234 120 -50 204 -102 263 -163 24 -24 51 -47 62 -50 11 -4
16 -13 12 -22 -3 -8 0 -28 5 -45 9 -25 7 -35 -11 -65 l-21 -35 -32 42 c-60 78
-197 170 -367 246 -200 90 -280 130 -337 169 -40 26 -65 38 -69 31 -4 -6 0
-15 9 -20 9 -5 14 -15 11 -23 -4 -9 0 -15 10 -15 9 0 16 -7 16 -15 0 -9 14
-29 30 -45 17 -16 30 -33 30 -39 0 -5 7 -11 15 -15 8 -3 15 -12 15 -21 0 -8 7
-15 15 -15 9 0 18 -7 21 -15 4 -8 12 -15 20 -15 8 0 14 -6 14 -12 0 -15 45
-38 72 -38 11 0 18 -7 18 -20 0 -12 7 -20 16 -20 9 0 32 -16 50 -36 28 -29 34
-43 34 -78 0 -23 -7 -51 -16 -62 -15 -18 -15 -18 -5 3 14 28 14 100 1 108 -6
4 -10 -7 -10 -25 0 -43 -47 -90 -90 -90 -17 0 -47 7 -67 15 -20 9 -43 13 -50
11 -22 -9 -27 58 -7 93 13 21 20 27 26 18 5 -8 8 -7 8 6 0 9 11 23 25 29 28
12 33 28 10 28 -8 0 -15 7 -15 15 0 8 -9 15 -20 15 -11 0 -20 7 -20 15 0 8 -7
15 -16 15 -9 0 -18 9 -21 20 -3 11 -12 20 -19 20 -8 0 -14 7 -14 15 0 8 -7 15
-15 15 -14 0 -19 10 -12 26 1 4 -8 10 -20 15 -13 5 -23 15 -23 24 0 8 -4 15
-10 15 -5 0 -10 9 -10 19 0 10 -7 22 -16 25 -10 4 -14 14 -11 26 3 11 1 20 -4
20 -5 0 -9 10 -9 22 0 12 -11 41 -25 65 l-26 43 33 45 c18 24 36 44 39 45 4 0
10 -10 13 -22z m424 5 c5 -17 -26 -29 -40 -15 -6 6 -7 15 -3 22 9 14 37 9 43
-7z m-4730 -36 c2 -12 -3 -17 -17 -17 -15 0 -21 6 -21 21 0 25 33 22 38 -4z
m4790 0 c2 -12 -3 -17 -17 -17 -15 0 -21 6 -21 21 0 25 33 22 38 -4z m-4869
-53 c-15 -18 -28 -18 -36 2 -8 20 17 36 34 22 10 -8 10 -14 2 -24z m4941 21
c13 -16 6 -35 -15 -35 -18 0 -28 17 -21 35 7 19 20 19 36 0z m-4997 -61 c-3
-8 -12 -14 -19 -14 -20 0 -30 30 -13 40 17 11 40 -7 32 -26z m5063 -3 c-9 -14
-33 -14 -41 -1 -4 6 -1 18 6 26 11 13 14 13 27 0 8 -8 11 -19 8 -25z m-5121
-21 c4 -6 1 -18 -6 -26 -11 -13 -14 -13 -27 0 -8 8 -11 19 -8 25 9 14 33 14
41 1z m5178 -4 c9 -22 -18 -40 -33 -22 -6 9 -9 20 -5 26 9 15 32 12 38 -4z
m-5233 -56 c0 -13 -7 -20 -20 -20 -19 0 -27 20 -13 33 13 14 33 6 33 -13z
m5288 -3 c2 -12 -3 -17 -17 -17 -15 0 -21 6 -21 21 0 25 33 22 38 -4z m-5341
-43 c8 -21 -13 -42 -28 -27 -13 13 -5 43 11 43 6 0 13 -7 17 -16z m5393 -10
c0 -20 -30 -30 -40 -13 -11 17 7 40 26 32 8 -3 14 -12 14 -19z m-5431 -48 c9
-10 8 -16 -4 -26 -19 -16 -41 1 -32 24 8 20 21 20 36 2z m5471 -18 c0 -15 -32
-21 -40 -7 -13 20 9 43 26 28 8 -6 14 -16 14 -21z m-5492 -61 c2 -12 -3 -17
-17 -17 -15 0 -21 6 -21 21 0 25 33 22 38 -4z m5510 0 c2 -12 -3 -17 -17 -17
-12 0 -21 6 -21 13 0 31 32 34 38 4z m-5515 -61 c9 -22 -18 -40 -33 -22 -6 9
-9 20 -5 26 9 15 32 12 38 -4z m5522 4 c4 -6 1 -18 -6 -26 -11 -13 -14 -13
-27 0 -8 8 -11 19 -8 25 9 14 33 14 41 1z m-571 -8 c3 -5 -1 -9 -9 -9 -8 0
-15 4 -15 9 0 4 4 8 9 8 6 0 12 -4 15 -8z m166 -188 c0 -8 5 -14 11 -14 15 0
59 -42 59 -57 0 -7 9 -13 20 -13 11 0 20 -7 20 -15 0 -8 7 -15 15 -15 9 0 18
-7 21 -15 4 -8 12 -15 20 -15 8 0 14 -6 14 -14 0 -7 9 -16 21 -19 13 -4 19
-12 17 -23 -5 -26 -28 -29 -35 -5 -3 11 -9 19 -13 16 -5 -3 -15 4 -24 16 -9
14 -21 19 -31 15 -12 -4 -18 0 -22 14 -3 11 -9 20 -14 20 -5 0 -9 7 -9 15 0 8
-7 15 -15 15 -9 0 -20 10 -25 23 -5 12 -9 18 -9 13 -1 -5 -8 -3 -16 4 -8 7
-12 16 -9 21 3 5 -2 9 -10 9 -19 0 -29 17 -22 35 6 18 36 9 36 -11z m-5012 -1
c5 -17 -26 -29 -40 -15 -6 6 -7 15 -3 22 9 14 37 9 43 -7z m5315 11 c9 -10 -4
-34 -18 -34 -17 0 -28 17 -20 30 7 11 28 13 38 4z m-5265 -61 c-2 -10 -10 -18
-18 -18 -8 0 -16 8 -18 18 -2 12 3 17 18 17 15 0 20 -5 18 -17z m5210 0 c-2
-10 -10 -18 -18 -18 -8 0 -16 8 -18 18 -2 12 3 17 18 17 15 0 20 -5 18 -17z
m-5150 -46 c2 -12 -3 -17 -17 -17 -15 0 -21 6 -21 21 0 25 33 22 38 -4z m5092
3 c0 -13 -7 -20 -20 -20 -19 0 -27 20 -13 33 13 14 33 6 33 -13z m-305 1 c-8
-14 -61 -24 -85 -16 -38 12 -20 25 36 25 31 0 53 -4 49 -9z m-4425 -31 c-8 -5
-31 -10 -50 -10 -19 0 -42 5 -50 10 -11 7 4 10 50 10 46 0 61 -3 50 -10z
m-243 -46 c8 -20 -8 -36 -26 -25 -15 10 -8 41 9 41 6 0 13 -7 17 -16z m4850 0
c7 -18 -17 -38 -31 -24 -11 11 -1 40 14 40 6 0 13 -7 17 -16z m-4783 -39 c3
-9 -1 -18 -10 -22 -19 -7 -39 11 -30 26 10 16 33 13 40 -4z m4724 -2 c5 -17
-26 -29 -40 -15 -6 6 -7 15 -3 22 9 14 37 9 43 -7z m-4982 -8 c7 -16 -33 -65
-53 -65 -7 0 -13 -7 -13 -15 0 -9 -7 -18 -15 -21 -8 -4 -15 -13 -15 -20 0 -8
-6 -17 -14 -20 -8 -3 -12 -12 -9 -20 3 -7 -2 -16 -10 -20 -9 -3 -13 -13 -10
-25 3 -10 1 -19 -4 -19 -13 0 -10 -54 4 -63 7 -4 10 -14 7 -22 -4 -9 0 -15 10
-15 9 0 16 -8 16 -21 0 -12 4 -17 11 -14 6 4 13 -2 16 -13 3 -13 11 -18 19
-15 18 7 30 -25 15 -40 -10 -9 -15 -8 -24 4 -7 8 -20 18 -29 22 -10 3 -18 13
-18 22 0 8 -5 15 -10 15 -6 0 -14 8 -17 18 -4 9 -13 23 -20 30 -7 8 -11 18 -7
23 3 6 0 16 -6 24 -7 8 -8 20 -4 27 5 7 7 23 5 36 -1 12 2 22 8 22 6 0 11 6
11 13 0 21 30 77 41 77 5 0 9 5 9 11 0 13 46 59 59 59 5 0 11 9 14 20 6 24 25
26 33 5z m5231 -5 c3 -11 12 -20 19 -20 8 0 14 -6 14 -14 0 -8 9 -18 20 -21
11 -3 20 -13 20 -21 0 -8 4 -14 10 -14 5 0 16 -17 25 -37 9 -21 21 -46 26 -55
20 -38 -13 -178 -42 -178 -5 0 -9 -6 -9 -14 0 -22 -19 -30 -36 -16 -11 10 -11
16 -3 26 6 8 15 11 20 8 5 -3 9 4 9 15 0 12 7 21 15 21 9 0 12 6 9 15 -4 8 1
17 10 21 13 5 14 9 5 20 -9 11 -8 18 1 29 10 12 10 15 0 15 -7 0 -10 8 -7 19
3 12 -1 22 -9 25 -8 3 -14 12 -14 19 0 8 -7 20 -15 27 -8 7 -12 16 -9 21 3 5
-2 9 -10 9 -14 0 -20 12 -17 33 0 4 -5 7 -11 7 -21 0 -61 49 -54 65 8 21 27
19 33 -5z m-4909 -27 c5 -17 -26 -29 -40 -15 -6 6 -7 15 -3 22 9 14 37 9 43
-7z m4592 -3 c0 -13 -7 -20 -20 -20 -19 0 -27 20 -13 33 13 14 33 6 33 -13z
m175 -64 c63 -27 94 -114 62 -176 -7 -13 -28 -35 -47 -48 -40 -27 -102 -26
-146 3 -34 22 -57 80 -50 124 6 39 60 101 88 101 10 0 18 4 18 9 0 5 5 22 11
38 l12 28 9 -32 c6 -24 18 -37 43 -47z m-4705 24 c0 -13 -7 -20 -20 -20 -13 0
-20 7 -20 20 0 13 7 20 20 20 13 0 20 -7 20 -20z m4468 3 c-5 -26 -38 -29 -38
-4 0 15 6 21 21 21 14 0 19 -5 17 -17z m-4733 -23 c3 -5 1 -10 -4 -10 -6 0
-11 5 -11 10 0 6 2 10 4 10 3 0 8 -4 11 -10z m329 -8 c9 -14 -12 -35 -28 -29
-23 9 -20 37 3 37 11 0 22 -4 25 -8z m4344 -9 c5 -17 -26 -29 -40 -15 -6 6 -7
15 -3 22 9 14 37 9 43 -7z m-4671 -21 c2 -10 19 -22 36 -28 69 -20 101 -130
56 -188 -45 -57 -117 -71 -176 -35 -85 53 -82 174 6 216 22 10 42 26 44 36 7
22 28 22 34 -1z m391 -19 c5 -17 -26 -29 -40 -15 -6 6 -7 15 -3 22 9 14 37 9
43 -7z m4220 0 c5 -17 -26 -29 -40 -15 -6 6 -7 15 -3 22 9 14 37 9 43 -7z
m-4163 -33 c4 -6 1 -18 -6 -26 -11 -13 -14 -13 -27 0 -8 8 -11 19 -8 25 9 14
33 14 41 1z m4098 -4 c8 -19 -15 -37 -32 -26 -17 10 -7 40 13 40 7 0 16 -6 19
-14z m-4035 -53 c5 -17 -26 -29 -40 -15 -6 6 -7 15 -3 22 9 14 37 9 43 -7z
m3980 0 c5 -17 -26 -29 -40 -15 -6 6 -7 15 -3 22 9 14 37 9 43 -7z m-3938 -48
c13 -16 6 -35 -15 -35 -15 0 -28 27 -19 41 8 13 20 11 34 -6z m3883 1 c8 -20
-20 -43 -35 -28 -14 14 -3 42 16 42 7 0 16 -6 19 -14z m-3813 -145 c0 -3 -9
-17 -19 -31 -18 -22 -18 -25 -3 -36 13 -10 14 -15 5 -25 -13 -14 -47 -4 -38
11 10 16 -1 12 -51 -20 -69 -43 -168 -82 -359 -140 -208 -63 -352 -130 -428
-200 l-55 -51 -16 23 c-22 31 -20 52 9 102 49 83 153 146 330 202 66 20 113
39 105 41 -8 3 -22 7 -30 10 -8 4 -20 5 -26 4 -6 0 -17 5 -23 13 -7 8 -19 12
-27 9 -7 -3 -16 2 -20 10 -3 8 -13 13 -23 10 -11 -3 -21 2 -24 11 -4 9 -13 13
-22 10 -8 -4 -17 1 -21 10 -3 9 -15 16 -26 16 -13 0 -18 6 -16 17 4 24 38 30
38 8 0 -11 5 -15 15 -11 8 3 20 0 27 -7 8 -7 20 -13 28 -15 8 -2 18 -8 21 -14
4 -6 11 -8 17 -4 6 3 16 0 24 -7 7 -8 19 -12 26 -9 6 2 15 -3 18 -12 3 -8 12
-12 20 -9 8 3 20 1 27 -5 43 -34 124 -16 294 64 90 43 163 99 163 126 0 7 14
-11 30 -41 17 -30 30 -57 30 -60z m3827 32 c41 -30 188 -98 263 -122 64 -21
110 -21 137 1 7 6 19 8 27 5 8 -3 17 1 20 9 3 9 12 14 18 12 7 -3 19 1 26 9 8
7 18 10 23 7 6 -3 16 2 24 12 7 11 17 16 20 12 4 -4 14 -1 21 7 8 8 21 12 29
9 10 -4 15 0 15 11 0 22 34 16 38 -8 2 -11 -3 -17 -16 -17 -11 0 -23 -7 -26
-16 -3 -9 -13 -14 -20 -11 -8 3 -20 -1 -27 -9 -7 -8 -18 -13 -25 -10 -7 3 -15
-2 -18 -10 -4 -10 -13 -13 -25 -9 -12 3 -21 0 -25 -10 -3 -9 -11 -15 -18 -14
-7 1 -20 0 -28 -4 -8 -3 -22 -7 -30 -10 -8 -2 39 -21 105 -42 138 -43 170 -58
244 -113 56 -42 111 -114 111 -145 0 -10 -7 -29 -16 -42 l-16 -25 -57 51 c-75
67 -224 138 -396 189 -190 57 -320 106 -383 146 -60 39 -62 39 -62 19 0 -8 -9
-15 -20 -15 -13 0 -20 7 -20 20 0 11 7 20 15 20 13 0 11 6 -6 29 l-22 30 29
55 28 54 17 -27 c9 -16 30 -37 46 -48z m700 1 c9 -23 -13 -40 -32 -24 -12 10
-13 16 -4 26 15 18 28 18 36 -2z m-4569 -181 c5 -17 -26 -29 -40 -15 -6 6 -7
15 -3 22 9 14 37 9 43 -7z m3832 -3 c0 -21 -24 -28 -35 -10 -8 14 3 30 21 30
8 0 14 -9 14 -20z m-3880 -60 c0 -13 -7 -20 -20 -20 -19 0 -27 20 -13 33 13
14 33 6 33 -13z m3927 4 c8 -22 -18 -37 -36 -20 -7 8 -10 19 -7 25 10 16 36
13 43 -5z m-3979 -51 c5 -17 -26 -29 -40 -15 -6 6 -7 15 -3 22 9 14 37 9 43
-7z m4037 -3 c0 -22 -39 -19 -43 3 -3 15 1 18 20 15 12 -2 23 -10 23 -18z
m-4100 -46 c0 -10 -8 -20 -17 -22 -18 -3 -26 27 -11 42 12 11 28 0 28 -20z
m4155 1 c0 -19 -20 -29 -32 -17 -15 15 -2 43 17 36 8 -3 15 -12 15 -19z
m-4213 -41 c8 -21 -13 -42 -28 -27 -13 13 -5 43 11 43 6 0 13 -7 17 -16z
m4270 0 c8 -21 -13 -42 -28 -27 -13 13 -5 43 11 43 6 0 13 -7 17 -16z m-4578
-55 c-10 -6 -11 -9 -1 -9 6 0 12 -9 12 -20 0 -13 7 -20 18 -20 20 0 64 -45 54
-55 -4 -3 1 -3 11 1 9 3 17 10 17 15 0 13 28 11 36 -3 4 -6 -1 -18 -12 -27
-13 -11 -18 -26 -16 -48 2 -18 -1 -41 -7 -50 -9 -16 -10 -16 -11 -2 0 15 -5
15 -57 -1 -43 -13 -64 -15 -86 -7 -31 10 -67 60 -67 92 0 17 -2 17 -10 5 -8
-13 -10 -12 -10 3 0 22 45 65 77 73 13 4 23 10 23 14 0 24 21 60 31 54 8 -4 7
-9 -2 -15z m249 4 c-5 -26 -38 -29 -38 -4 0 15 6 21 21 21 14 0 19 -5 17 -17z
m4392 -4 c0 -14 -5 -19 -17 -17 -26 5 -29 38 -4 38 15 0 21 -6 21 -21z m230 3
c0 -5 -7 -9 -15 -9 -8 0 -12 4 -9 9 3 4 9 8 15 8 5 0 9 -4 9 -8z m10 -42 c0
-12 7 -20 18 -20 37 -1 109 -96 88 -117 -3 -3 -6 0 -6 8 0 9 -7 24 -15 35 -11
14 -13 14 -9 3 8 -26 -20 -83 -50 -98 -26 -15 -87 -8 -138 14 -14 5 -18 2 -19
-11 0 -15 -3 -13 -10 6 -6 14 -8 42 -6 62 4 28 2 35 -9 31 -18 -7 -30 25 -15
40 8 8 17 5 35 -12 20 -19 24 -20 30 -6 4 11 2 14 -7 10 -6 -4 -1 3 13 14 14
11 33 21 43 21 10 0 17 8 17 20 0 13 7 20 20 20 13 0 20 -7 20 -20z m-4682 -7
c5 -17 -26 -29 -40 -15 -6 6 -7 15 -3 22 9 14 37 9 43 -7z m4500 0 c5 -17 -26
-29 -40 -15 -6 6 -7 15 -3 22 9 14 37 9 43 -7z m-4831 -125 c-3 -8 -6 -5 -6 6
-1 11 2 17 5 13 3 -3 4 -12 1 -19z m16 -48 c3 -11 2 -18 -3 -15 -4 3 -10 14
-13 25 -3 11 -2 18 3 15 4 -3 10 -14 13 -25z m5100 10 c-3 -11 -10 -23 -16
-27 -5 -3 -8 -2 -5 3 3 5 8 17 11 27 9 24 16 22 10 -3z m-4964 -60 c20 0 23
-2 11 -10 -28 -18 -100 -9 -100 12 0 6 13 8 31 4 17 -3 43 -6 58 -6z m4887
-15 c-21 -16 -53 -19 -80 -9 -30 11 -5 24 47 24 48 -1 50 -2 33 -15z"/>
<path d="M4395 3609 c-4 -6 -5 -12 -2 -15 2 -3 7 2 10 11 7 17 1 20 -8 4z"/>
</g>
</svg>
