<svg version="1.1"
      xmlns="http://www.w3.org/2000/svg"
      xmlns:xlink="http://www.w3.org/1999/xlink"  id="snapshot-09606" width="250" height="250" viewBox="0 0 250 250"><desc>This image was made on Patterninja.com</desc><defs>
<!-- image 87989 -->
<g id="transformed-87989" data-image="87989" transform="translate(-8.14, -18.459999999999994) rotate(0, 125, 125)"><g><svg version="1.1" width="250px" height="250px" viewBox="0 0 250 250"><g id="original-87989"><svg xmlns="http://www.w3.org/2000/svg" viewBox="0 0 400 400" xmlns:xlink="http://www.w3.org/1999/xlink" version="1.1" preserveAspectRatio="xMidYMid meet">
  <path d="M296.1 295.7L249 229.1h20.5c1.9 0 3.7-1.1 4.5-2.9.8-1.8.5-3.8-.7-5.3L227 166.2h20.2c1.9 0 3.6-1 4.4-2.7.9-1.6.7-3.6-.3-5.2l-47.5-69.1c-.9-1.4-2.5-2.2-4.1-2.2-1.6 0-3.2.8-4.1 2.2L148 158.4c-1.1 1.5-1.2 3.5-.3 5.2.9 1.6 2.6 2.7 4.4 2.7h20.2L126 220.9c-1.3 1.5-1.5 3.6-.7 5.3.8 1.8 2.6 2.9 4.5 2.9h20.5l-47.1 66.5c-1.1 1.5-1.2 3.5-.4 5.2.9 1.7 2.6 2.7 4.4 2.7h53l-.1 35.5c0 1.3.5 2.6 1.5 3.5.9.9 2.2 1.5 3.5 1.5H234c2.8 0 5-2.2 5-5v-35.5h53c1.9 0 3.6-1 4.4-2.7.9-1.6.8-3.6-.3-5.1zm-96.4-194.8l36.8 53.5h-73.6l36.8-53.5zm-12.8 63.5h25.4l46.4 54.7H140.6l46.3-54.7zm-1.6 129.2c-2.8 0-5 2.2-5 5s2.2 5 5 5H229v30.5h-58.9l.1-35.5c0-1.3-.5-2.6-1.5-3.5-.9-.9-2.2-1.5-3.5-1.5h-48.3l45.6-64.4h74.2l45.6 64.4h-97z" fill="rgba(221, 221, 221, 1)" stroke="none"/>
  <circle cx="278.1" cy="241.2" r="7.5" fill="rgba(221, 221, 221, 1)" stroke="none"/>
  <circle cx="256.7" cy="177" r="7.5" fill="rgba(221, 221, 221, 1)" stroke="none"/>
  <circle cx="140.9" cy="177" r="7.5" fill="rgba(221, 221, 221, 1)" stroke="none"/>
  <circle cx="121.2" cy="241.2" r="7.5" fill="rgba(221, 221, 221, 1)" stroke="none"/>
  <path d="M191.3 81.1l8.4-4.4 8.3 4.4-1.6-9.3 6.8-6.6-9.4-1.3-4.1-8.5-4.2 8.5-9.4 1.3 6.8 6.6z" fill="rgba(221, 221, 221, 1)" stroke="none"/>
</svg>
</g></svg></g></g>
<!-- /image 87989 -->

<!-- image 88648 -->
<g id="transformed-88648" data-image="88648" transform="translate(-125, -125) rotate(0, 125, 125)"><g><svg version="1.1" width="250px" height="250px" viewBox="0 0 250 250"><g id="original-88648"><svg xmlns="http://www.w3.org/2000/svg" viewBox="0 0 400 400" xmlns:xlink="http://www.w3.org/1999/xlink" version="1.1" preserveAspectRatio="xMidYMid meet">
  <path d="M282.2 144h-52.8c1.5-.7 3-1.4 4.6-2.1 7.1-3.4 12.7-6.5 17.1-9.4.1-.1.3-.2.4-.3 15.5-10.2 16.1-17.3 16.4-20 .6-6.6-3.4-12.3-12-16.9-6.7-3.6-13.6-4-20.6-1.3-5.2 2.1-10 5.9-14.3 10.6-.3.3-.6.6-.8.9-6.2 7.1-11.4 15.9-15.2 23.6-1-12.6-5.2-32.7-21.6-42.7-20.2-12.2-39.8 3.8-47.7 14.4-.9.8-1.8 1.7-2.6 2.7-5.2 5.9-4.8 11.4-3.6 15 3.1 9.1 15.6 17.2 38.4 24.9.5.2 1 .3 1.5.5h-52.8c-9.4 0-17 7.6-17 17v42c0 9.4 7.6 17 17 17h62V313h-43.2c-3.9 0-7-3.1-7-7v-73c0-2.8-2.2-5-5-5s-5 2.2-5 5v73.1c0 9.4 7.6 17 17 17H265c9.4 0 17-7.6 17-17V233c0-2.8-2.2-5-5-5s-5 2.2-5 5v73.1c0 3.9-3.1 7-7 7h-44.7V220h61.9c9.4 0 17-7.6 17-17v-42c0-9.4-7.7-17-17-17zm-69.4 10v56H191v-56h9.1c.6.2 1.2.3 1.8.3.5 0 1-.1 1.6-.2 0 0 .1 0 .3-.1h9zm31.4-51.7c2.3 0 4.6.6 6.9 1.9 3.2 1.7 7 4.4 6.7 7.2-.2 2.3-2.1 4.9-5.2 7.6-1.1-4-3.1-7.3-6-9.9-2.8-2.6-6.2-4.1-9.5-4.9.6-.3 1.2-.6 1.8-.8 1.8-.8 3.5-1.1 5.3-1.1zm-17.4 10.8c3.5-.2 9.6.2 13.2 3.4 2.2 2 3.4 4.9 3.6 8.9-9.3 5.6-21.6 11.2-33 15.5 3.7-8.7 9.4-19.7 16.2-27.8zM178.2 95c12.2 7.4 15.7 23.3 16.7 33.9-9-13.2-23-30.1-37.9-33.8 7.6-4.1 14.5-4.1 21.2-.1zm-39.3 20.3c-.2-.7-.8-2.4 1.7-5.3 3.3-3.8 6.8-5.6 10.7-5.6.5 0 1 0 1.5.1 13 1.5 28.2 21 37.2 35.1-22.3-5.7-48.1-15.4-51.1-24.3zM109.6 203v-42c0-3.9 3.1-7 7-7H181v56h-64.5c-3.8 0-6.9-3.1-6.9-7zm79 110.1V220h21.7v93.1h-21.7zM289.2 203c0 3.9-3.1 7-7 7h-59.4v-56h59.4c3.9 0 7 3.1 7 7v42z" fill="rgba(221, 221, 221, 1)" stroke="none"/>
</svg>
</g></svg></g></g>
<!-- /image 88648 -->
</defs><rect x="0" y="0" width="250" height="250" fill="rgba(0, 17, 28, 1)"></rect><use xlink:href="#transformed-87989" transform="translate(-250, -250)"></use><use xlink:href="#transformed-87989" transform="translate(0, -250)"></use><use xlink:href="#transformed-87989" transform="translate(250, -250)"></use><use xlink:href="#transformed-87989" transform="translate(-250, 0)"></use><use xlink:href="#transformed-87989" transform="translate(0, 0)"></use><use xlink:href="#transformed-87989" transform="translate(250, 0)"></use><use xlink:href="#transformed-87989" transform="translate(-250, 250)"></use><use xlink:href="#transformed-87989" transform="translate(0, 250)"></use><use xlink:href="#transformed-87989" transform="translate(250, 250)"></use><use xlink:href="#transformed-88648" transform="translate(-250, -250)"></use><use xlink:href="#transformed-88648" transform="translate(0, -250)"></use><use xlink:href="#transformed-88648" transform="translate(250, -250)"></use><use xlink:href="#transformed-88648" transform="translate(-250, 0)"></use><use xlink:href="#transformed-88648" transform="translate(0, 0)"></use><use xlink:href="#transformed-88648" transform="translate(250, 0)"></use><use xlink:href="#transformed-88648" transform="translate(-250, 250)"></use><use xlink:href="#transformed-88648" transform="translate(0, 250)"></use><use xlink:href="#transformed-88648" transform="translate(250, 250)"></use></svg>